<svg width="287" height="287" viewBox="0 0 287 287" fill="none" xmlns="http://www.w3.org/2000/svg">
<path d="M68.394 25.2719C129.379 -25.4634 148.92 26.3468 151.068 58.5938C155.362 47.4865 174.473 28.4964 216.562 41.3948C258.65 54.2931 244.835 94.0647 232.667 112.338C250.562 105.889 284.848 107.609 278.835 166.083C272.823 224.558 227.656 219.828 205.825 210.154C215.13 234.16 222.36 282.172 176.835 282.172C131.311 282.172 122.793 248.492 124.225 231.652C71.6141 272.498 57.6572 277.873 17.9309 252.075C-13.8501 231.437 31.173 202.63 57.6572 190.806C47.6361 190.448 25.6614 182.422 17.9309 153.184C10.2004 123.947 41.194 113.771 57.6572 112.338C35.8256 104.456 7.4087 76.0072 68.394 25.2719Z" fill="#EEACB8" stroke="black" stroke-width="6"/>
<circle cx="143.268" cy="143.086" r="43.0488" fill="#FE0B0F" stroke="black" stroke-width="6"/>
</svg>
